<svg xmlns="http://www.w3.org/2000/svg" viewBox="0 0 400 300"><rect width="360" height="254.81" x="20" y="25.19" fill="#2563eb" rx="8" style="stroke:none"/><rect width="360" height="28.062" x="20" y="25.969" fill="#3b82f6" rx="8" style="stroke-width:.83759"/><path fill="#3b82f6" d="M20 46h360v8H20z"/><circle cx="40" cy="40" r="6" fill="#ef4444"/><circle cx="60" cy="40" r="6" fill="#f59e0b"/><circle cx="80" cy="40" r="6" fill="#10b981"/><rect width="200" height="16" x="110" y="32" fill="#dbeafe" stroke="#93c5fd" rx="8"/><text x="117.481" y="43.038" fill="#1e40af" font-family="Arial, sans-serif" font-size="10">https://github.com/tbocek/preveltekit</text><path fill="#f8fafc" stroke="#cbd5e1" d="M25.092 59.123H373.35v213.708H25.092z" style="stroke-width:1.04618"/><rect width="332.716" height="44.792" x="32.734" y="66.505" fill="#e0e7ff" rx="4.159" style="fill:#c6d3ff;fill-opacity:1;stroke-width:1.24596"/><rect width="80" height="8" x="49.121" y="76.176" fill="#4f46e5" rx="2"/><g fill="#4f46e5" transform="translate(-1.877 -3.374)"><rect width="15" height="4" x="280" y="85" rx="1"/><rect width="15" height="4" x="300" y="85" rx="1"/><rect width="15" height="4" x="320" y="85" rx="1"/></g><g fill="#4f46e5" transform="translate(-1.877 3.85)"><rect width="15" height="4" x="280" y="85" rx="1"/><rect width="15" height="4" x="300" y="85" rx="1"/><rect width="15" height="4" x="320" y="85" rx="1"/></g><g fill="#4f46e5" transform="translate(-1.877 11.074)"><rect width="15" height="4" x="280" y="85" rx="1"/><rect width="15" height="4" x="300" y="85" rx="1"/><rect width="15" height="4" x="320" y="85" rx="1"/></g><rect width="168.166" height="74.273" x="31.955" y="117.734" fill="#e0e7ff" rx="4.484" style="fill:#c6d3ff;fill-opacity:1;stroke-width:1.17804"/><rect width="60" height="12" x="48.962" y="173.304" fill="#3b82f6" rx="2"/><rect width="154.671" height="74.014" x="210.779" y="117.734" fill="#e0e7ff" rx="4.125" style="fill:#c6d3ff;fill-opacity:1;stroke-width:1.12782"/><rect width="60" height="12" x="219.481" y="174.862" fill="#3b82f6" rx="2"/><rect width="334.014" height="64.152" x="31.436" y="200" fill="#e0e7ff" rx="4.175" style="fill:#c6d3ff;fill-opacity:1;stroke-width:1.05642"/><circle cx="349.481" cy="78.581" r="5.076" fill="#93c5fd" style="stroke-width:1.69204"><animate attributeName="opacity" dur="1.5s" repeatCount="indefinite" values="0.3;1;0.3"/></circle><rect width="360.02" height="254.83" x="19.796" y="25.211" fill="#2563eb" stroke="#1e40af" stroke-width="1.98" rx="8" style="fill:none"/></svg>