<svg xmlns="http://www.w3.org/2000/svg" viewBox="0 0 400 300"><rect width="360" height="255" x="20" y="25" fill="#2563eb" rx="8" style="stroke:none"/><rect width="360" height="28" x="20" y="26" fill="#3b82f6" rx="8" style="stroke-width:1"/><path fill="#3b82f6" d="M20 46h360v8H20z"/><circle cx="40" cy="40" r="6" fill="#ef4444"/><circle cx="60" cy="40" r="6" fill="#f59e0b"/><circle cx="80" cy="40" r="6" fill="#10b981"/><rect width="200" height="16" x="110" y="32" fill="#dbeafe" stroke="#93c5fd" rx="8"/><text x="117" y="43" fill="#1e40af" font-family="Arial, sans-serif" font-size="10">https://github.com/tbocek/preveltekit</text><path fill="#f8fafc" stroke="#cbd5e1" d="M25 59h348v214H25z" style="stroke-width:1"/><rect width="333" height="45" x="33" y="67" fill="#e0e7ff" rx="4" style="fill:#c6d3ff;fill-opacity:1;stroke-width:1.2"/><rect width="80" height="8" x="49" y="76" fill="#4f46e5" rx="2"/><g fill="#4f46e5" transform="translate(-2 -3)"><rect width="15" height="4" x="280" y="85" rx="1"/><rect width="15" height="4" x="300" y="85" rx="1"/><rect width="15" height="4" x="320" y="85" rx="1"/></g><g fill="#4f46e5" transform="translate(-2 4)"><rect width="15" height="4" x="280" y="85" rx="1"/><rect width="15" height="4" x="300" y="85" rx="1"/><rect width="15" height="4" x="320" y="85" rx="1"/></g><g fill="#4f46e5" transform="translate(-2 11)"><rect width="15" height="4" x="280" y="85" rx="1"/><rect width="15" height="4" x="300" y="85" rx="1"/><rect width="15" height="4" x="320" y="85" rx="1"/></g><rect width="168" height="74" x="32" y="118" fill="#e0e7ff" rx="4" style="fill:#c6d3ff;fill-opacity:1;stroke-width:1.2"/><rect width="60" height="12" x="49" y="173" fill="#3b82f6" rx="2"/><rect width="155" height="74" x="211" y="118" fill="#e0e7ff" rx="4" style="fill:#c6d3ff;fill-opacity:1;stroke-width:1.2"/><rect width="60" height="12" x="219" y="175" fill="#3b82f6" rx="2"/><rect width="334" height="64" x="31" y="200" fill="#e0e7ff" rx="4" style="fill:#c6d3ff;fill-opacity:1;stroke-width:1"/><circle cx="349" cy="79" r="5" fill="#93c5fd" style="stroke-width:1.7"/><rect width="360" height="255" x="20" y="25" fill="#2563eb" stroke="#1e40af" stroke-width="2" rx="8" style="fill:none"/></svg>